<?xml version="1.0" encoding="UTF-8" standalone="no"?>
<svg
   xmlns:dc="http://purl.org/dc/elements/1.1/"
   xmlns:cc="http://creativecommons.org/ns#"
   xmlns:rdf="http://www.w3.org/1999/02/22-rdf-syntax-ns#"
   xmlns:svg="http://www.w3.org/2000/svg"
   xmlns="http://www.w3.org/2000/svg"
   xmlns:sodipodi="http://sodipodi.sourceforge.net/DTD/sodipodi-0.dtd"
   xmlns:inkscape="http://www.inkscape.org/namespaces/inkscape"
   inkscape:version="1.0 (4035a4fb49, 2020-05-01)"
   sodipodi:docname="sunset.svg"
   viewBox="0 0 1000 666.66669"
   height="666.66669"
   width="1000"
   xml:space="preserve"
   id="svg10"
   version="1.1"><metadata
     id="metadata16"><rdf:RDF><cc:Work
         rdf:about=""><dc:format>image/svg+xml</dc:format><dc:type
           rdf:resource="http://purl.org/dc/dcmitype/StillImage" /><dc:title></dc:title></cc:Work></rdf:RDF></metadata><defs
     id="defs14"><clipPath
       id="clipPath26"
       clipPathUnits="userSpaceOnUse"><path
         id="path24"
         d="M 0,0 H 750 V 500 H 0 Z" /></clipPath><linearGradient
       id="linearGradient40"
       spreadMethod="pad"
       gradientTransform="matrix(0,500,500,0,375,2.5123699)"
       gradientUnits="userSpaceOnUse"
       y2="0"
       x2="1"
       y1="0"
       x1="0"><stop
         id="stop32"
         offset="0"
         style="stop-opacity:1;stop-color:#ff8181" /><stop
         id="stop34"
         offset="0.580114"
         style="stop-opacity:1;stop-color:#ff8181" /><stop
         id="stop36"
         offset="0.77158136"
         style="stop-opacity:1;stop-color:#ff8181" /><stop
         id="stop38"
         offset="1"
         style="stop-opacity:1;stop-color:#f36982" /></linearGradient><clipPath
       id="clipPath50"
       clipPathUnits="userSpaceOnUse"><path
         id="path48"
         d="M 0,500 H 750 V 0 H 0 Z" /></clipPath><clipPath
       id="clipPath58"
       clipPathUnits="userSpaceOnUse"><path
         id="path56"
         d="M 0,357.014 H 750 V 0 H 0 Z" /></clipPath><clipPath
       id="clipPath62"
       clipPathUnits="userSpaceOnUse"><path
         id="path60"
         d="m 0,316.329 c 0,0 7.917,-1.995 16.228,1.773 8.311,3.767 4.987,5.762 11.636,6.427 6.649,0.665 3.657,3.546 14.627,5.541 10.971,1.994 20.944,3.103 26.264,4.432 5.319,1.33 7.646,2.882 13.962,2.882 h 17.952 c 1.995,0 10.971,-1.552 15.293,0 4.322,1.551 8.644,-0.222 15.293,0 6.649,0.221 16.622,-5.32 26.263,-5.763 9.641,-0.443 11.303,0.887 21.609,-0.222 10.306,-1.108 24.269,0 27.925,0 3.657,0 21.277,4.876 36.57,2.882 15.292,-1.995 18.617,-1.995 26.263,-1.995 7.646,0 13.63,2.66 22.495,0.296 8.866,-2.365 10.639,-2.365 14.406,-1.626 3.768,0.739 16.623,4.728 22.164,3.546 5.54,-1.182 7.092,-0.738 11.746,-1.182 4.654,-0.443 13.076,-1.921 18.174,-2.216 5.097,-0.296 29.255,-3.103 39.229,-3.103 9.973,0 11.303,1.921 16.622,1.478 5.319,-0.444 15.514,-1.921 19.725,-1.626 4.211,0.296 9.087,1.035 12.855,1.035 3.767,0 34.574,2.364 39.45,4.137 4.876,1.773 8.865,3.398 15.293,6.205 6.427,2.808 19.725,3.842 25.266,7.093 5.54,3.25 21.276,4.728 30.806,7.387 9.53,2.66 10.195,4.137 17.952,2.808 7.758,-1.33 12.412,-2.217 17.509,-2.217 5.098,0 15.958,-1.625 20.834,-2.364 4.875,-0.738 27.704,-1.329 32.579,0.296 4.876,1.625 14.628,-0.148 21.942,-1.33 7.314,-1.182 15.957,-2.66 21.055,-1.921 5.097,0.739 13.076,-2.955 17.509,-2.955 4.432,0 21.72,-4.432 27.26,-3.398 5.541,1.034 10.984,3.103 15.244,3.546 L 750,0 H 0 Z" /></clipPath><linearGradient
       id="linearGradient70"
       spreadMethod="pad"
       gradientTransform="matrix(0.2822264,271.27435,271.27435,-0.2822264,374.92722,88.192512)"
       gradientUnits="userSpaceOnUse"
       y2="0"
       x2="1"
       y1="0"
       x1="0"><stop
         id="stop64"
         offset="0"
         style="stop-opacity:1;stop-color:#576484" /><stop
         id="stop66"
         offset="0.36115299"
         style="stop-opacity:1;stop-color:#576484" /><stop
         id="stop68"
         offset="1"
         style="stop-opacity:1;stop-color:#474779" /></linearGradient><clipPath
       id="clipPath96"
       clipPathUnits="userSpaceOnUse"><path
         id="path94"
         d="M 0,282.109 H 750 V 0 H 0 Z" /></clipPath><clipPath
       id="clipPath100"
       clipPathUnits="userSpaceOnUse"><path
         id="path98"
         d="m 750,276.002 c 0,0 -7.941,5.262 -18.001,4.116 -6.455,-0.736 -10.195,-2.004 -14.849,-1.952 -4.655,0.053 -7.979,3.051 -14.628,0 -6.649,-3.05 -16.265,-4.694 -24.601,-4.823 -1.482,-0.023 -12.882,1.93 -18.638,2.921 -2.199,0.379 -4.454,0.552 -6.725,0.52 -6.477,-0.092 -20.156,-0.244 -23.174,0.053 -9.002,0.885 -39.894,8.708 -61.17,3.494 -21.277,-5.215 -28.591,-7.432 -33.91,-6.988 -5.319,0.443 -6.649,-1.773 -18.617,-2.217 -11.968,-0.443 -15.293,2.66 -25.931,3.103 -10.638,0.444 -31.816,2.15 -39.229,2.286 -15.77,0.29 -64.494,-15.14 -69.813,-18.686 -5.32,-3.547 -23.771,-6.743 -28.591,-6.35 -6.803,0.555 -12.633,1.323 -19.282,-0.596 -6.649,-1.92 -8.643,-5.909 -20.612,-7.682 -11.968,-1.773 -29.255,-4.433 -39.228,-3.103 -9.974,1.33 -53.857,10.195 -87.766,3.546 -33.91,-6.649 -38.389,-3.814 -46.353,-5.297 -5.58,-1.039 -13.488,-5.341 -22.796,-4.455 -9.309,0.887 -21.942,2.66 -31.915,3.103 -9.973,0.444 -28.59,-2.216 -44.548,1.773 -15.957,3.99 -25.39,7.536 -39.623,7.979 L 0,0 h 750 z" /></clipPath><linearGradient
       id="linearGradient108"
       spreadMethod="pad"
       gradientTransform="matrix(0.5683171,285.57922,285.57922,-0.5683171,374.75299,-0.7457774)"
       gradientUnits="userSpaceOnUse"
       y2="0"
       x2="1"
       y1="0"
       x1="0"><stop
         id="stop102"
         offset="0"
         style="stop-opacity:1;stop-color:#576484" /><stop
         id="stop104"
         offset="0.36115299"
         style="stop-opacity:1;stop-color:#576484" /><stop
         id="stop106"
         offset="1"
         style="stop-opacity:1;stop-color:#474779" /></linearGradient><clipPath
       id="clipPath130"
       clipPathUnits="userSpaceOnUse"><path
         id="path128"
         d="m 54.694,190.32 c -4.654,-0.443 -2.218,-4.796 -15.514,-2.069 v 0 c -11.525,2.364 -9.973,-1.625 -22.385,-6.058 v 0 C 4.384,177.761 0,175.396 0,175.396 v 0 V 0 h 750 v 102.812 l -269.552,38.897 c 0,0 -13.741,5.615 -17.731,7.979 v 0 c -3.99,2.363 -19.06,2.363 -24.823,5.909 v 0 c -5.762,3.547 -12.855,3.842 -21.72,4.434 v 0 c -8.865,0.59 -14.627,-0.592 -20.833,2.363 v 0 c -6.205,2.956 -12.411,4.433 -16.401,4.433 v 0 c -3.989,0 -20.833,1.182 -27.482,3.547 v 0 c -6.649,2.363 -19.06,1.773 -28.812,-0.592 v 0 c -9.752,-2.364 -11.968,-0.591 -21.719,0.295 v 0 c -9.753,0.887 -9.309,-4.137 -14.628,-4.432 v 0 c -5.32,-0.295 -7.979,-0.887 -20.39,-0.591 v 0 c -12.411,0.296 -31.915,-8.865 -35.905,-10.047 v 0 c -3.989,-1.183 -18.174,-2.364 -20.389,-2.364 v 0 c -2.217,0 -11.969,0 -20.391,2.954 v 0 c -8.422,2.956 -13.741,3.251 -13.741,3.251 v 0 c 0,0 -12.114,2.002 -13.298,3.251 v 0 c -2.192,2.313 -11.968,2.659 -15.071,2.659 v 0 c -3.102,0 -12.411,0.296 -14.184,5.911 v 0 c -1.773,5.614 -19.06,9.456 -19.06,9.456 v 0 c 0,0 -18.618,8.274 -25.71,11.546 v 0 c -1.975,0.912 -5.057,1.247 -8.585,1.247 v 0 c -9.14,0 -21.271,-2.254 -24.881,-2.598" /></clipPath><linearGradient
       id="linearGradient144"
       spreadMethod="pad"
       gradientTransform="matrix(-0.5446962,-177.42859,-177.42859,0.5446962,375.33313,196.20972)"
       gradientUnits="userSpaceOnUse"
       y2="0"
       x2="1"
       y1="0"
       x1="0"><stop
         id="stop136"
         offset="0"
         style="stop-opacity:1;stop-color:#26305c" /><stop
         id="stop138"
         offset="0.08915936"
         style="stop-opacity:1;stop-color:#26305c" /><stop
         id="stop140"
         offset="0.478893"
         style="stop-opacity:1;stop-color:#4f3569" /><stop
         id="stop142"
         offset="1"
         style="stop-opacity:1;stop-color:#4f3569" /></linearGradient><clipPath
       id="clipPath154"
       clipPathUnits="userSpaceOnUse"><path
         id="path152"
         d="m 739.242,197.491 c -0.08,0.069 -0.373,0.069 -0.373,0.069 v 0 z m -2.588,-0.965 c -3.99,-1.034 -9.309,-1.034 -9.309,-1.034 v 0 c 0,0 -4.655,-2.66 -6.871,-3.99 v 0 c -2.216,-1.329 -6.427,-1.329 -9.087,-0.739 v 0 c -2.66,0.591 -11.968,-0.018 -13.298,-0.378 v 0 c -1.33,-0.361 -6.427,0.23 -7.978,-0.951 v 0 c -1.552,-1.183 -7.979,-0.739 -9.087,-0.739 v 0 c -1.108,0 -9.309,-0.296 -11.303,-1.625 v 0 c -1.995,-1.331 -5.098,-1.331 -7.092,-1.478 v 0 c -0.559,-0.042 -1.692,-0.002 -3.056,0.038 v 0 c -3.509,0.101 -8.558,0.204 -9.356,-1.072 v 0 c -1.108,-1.773 -9.53,-2.512 -9.53,-2.512 v 0 c 0,0 -9.087,0.295 -11.525,0 v 0 c -1.016,-0.124 -1.686,0.01 -2.586,0.143 v 0 c -1.26,0.187 -2.973,0.373 -6.723,-0.143 v 0 c -6.426,-0.887 -11.081,-1.871 -17.287,-0.049 v 0 c -6.205,1.822 -2.216,1.822 -10.195,1.379 v 0 c -7.979,-0.444 -16.844,-1.035 -20.612,-0.296 v 0 c -3.767,0.739 -11.524,2.955 -12.411,2.955 v 0 c -0.886,0 -4.211,1.773 -7.092,1.182 v 0 c -2.881,-0.591 -10.639,-1.034 -14.406,-2.659 v 0 c -3.768,-1.626 -7.757,-1.921 -9.309,-2.512 v 0 c -1.551,-0.592 -7.535,-1.182 -8.643,-2.807 v 0 c -1.108,-1.626 -7.757,-1.035 -12.19,-3.694 v 0 c -4.433,-2.66 -7.313,-1.922 -9.973,-3.99 v 0 c -2.659,-2.068 -9.087,-3.693 -11.303,-4.285 v 0 c -2.217,-0.591 -19.948,-6.058 -22.385,-7.092 v 0 c -2.438,-1.034 -10.195,-5.171 -13.963,-5.467 v 0 c -3.768,-0.295 -1.995,-1.034 -7.092,-2.66 v 0 c -5.098,-1.625 -9.309,-3.841 -13.52,-3.841 v 0 c -4.21,0 -14.627,-4.137 -17.951,-4.728 v 0 c -3.325,-0.591 -1.996,-1.773 -5.985,-1.921 v 0 c -3.989,-0.148 -5.319,-1.182 -7.757,-1.329 v 0 c -2.438,-0.149 -24.823,-4.877 -26.374,-3.842 v 0 c -1.552,1.034 -4.654,-0.148 -11.082,-1.773 v 0 c -6.427,-1.626 -16.178,-4.138 -18.395,-3.399 v 0 c -2.217,0.739 -9.974,-1.478 -14.184,-1.478 v 0 c -4.211,0 -7.314,-0.147 -11.303,0 v 0 c -3.99,0.149 -13.741,1.478 -13.741,1.478 v 0 c 0,0 -9.309,-1.018 -12.855,-1.543 v 0 c -3.546,-0.525 -9.309,0.361 -11.303,-1.559 v 0 c -1.995,-1.922 -8.201,-3.399 -10.195,-3.399 v 0 c -1.996,0 -16.623,-1.33 -20.169,-1.772 v 0 c -3.546,-0.444 -15.292,-0.149 -16.622,0 v 0 c -0.49,0.054 -2.962,-0.216 -6.012,-0.486 v 0 c -5.235,-0.462 -12.174,-0.925 -13.714,0.251 v 0 c -2.438,1.859 -16.4,1.121 -19.725,1.711 v 0 c -3.324,0.592 -24.379,1.626 -31.028,2.217 v 0 c -6.649,0.591 -9.973,0.591 -13.519,1.773 v 0 c -3.546,1.182 -9.309,3.103 -12.412,2.66 v 0 c -3.102,-0.444 -23.936,2.954 -28.147,4.137 v 0 c -4.211,1.182 -12.854,0.59 -15.293,0.886 v 0 c -2.438,0.296 -7.535,1.034 -10.86,1.478 v 0 c -3.324,0.443 -9.751,1.182 -12.854,0.738 v 0 c -1.435,-0.205 -3.866,0.76 -6.502,1.724 v 0 c -3.065,1.12 -6.408,2.242 -8.79,1.527 v 0 c -4.433,-1.329 -15.515,-0.443 -15.515,-0.443 v 0 c 0,0 -7.535,2.364 -11.303,1.773 v 0 c -3.768,-0.591 -7.979,-0.147 -9.974,0.443 v 0 C 13.914,143.925 2.487,145.255 0,144.959 v 0 V 0 h 750 v 195.492 l -10.758,1.999 c 0.117,-0.102 -0.219,-0.351 -2.588,-0.965" /></clipPath><linearGradient
       id="linearGradient164"
       spreadMethod="pad"
       gradientTransform="matrix(0.3882016,-185.63211,-185.63211,-0.3882016,374.81467,186.36635)"
       gradientUnits="userSpaceOnUse"
       y2="0"
       x2="1"
       y1="0"
       x1="0"><stop
         id="stop160"
         offset="0"
         style="stop-opacity:1;stop-color:#2f2052" /><stop
         id="stop162"
         offset="1"
         style="stop-opacity:1;stop-color:#3b396a" /></linearGradient><clipPath
       id="clipPath174"
       clipPathUnits="userSpaceOnUse"><path
         id="path172"
         d="M 0,500 H 750 V 0 H 0 Z" /></clipPath><clipPath
       id="clipPath186"
       clipPathUnits="userSpaceOnUse"><path
         id="path184"
         d="M 0,500 H 532.67 V 14.961 L 0,14.961 Z" /></clipPath><clipPath
       id="clipPath190"
       clipPathUnits="userSpaceOnUse"><path
         id="path188"
         d="M 489.654,500 H 0 V 91.476 C 56.391,43.753 129.314,14.961 208.974,14.961 c 178.773,0 323.696,144.924 323.696,323.697 0,58.751 -15.654,113.845 -43.016,161.342" /></clipPath><clipPath
       id="clipPath194"
       clipPathUnits="userSpaceOnUse"><path
         id="path192"
         d="M -32768,32767 H 32767 V -32768 H -32768 Z" /></clipPath><radialGradient
       id="radialGradient200"
       spreadMethod="pad"
       gradientTransform="matrix(323.69656,0,0,-323.69656,208.97391,338.65753)"
       gradientUnits="userSpaceOnUse"
       r="1"
       cy="0"
       cx="0"
       fy="0"
       fx="0"><stop
         id="stop196"
         offset="0"
         style="stop-opacity:1;stop-color:#ffffff" /><stop
         id="stop198"
         offset="1"
         style="stop-opacity:0;stop-color:#ffffff" /></radialGradient><mask
       id="mask202"
       height="1"
       width="1"
       y="0"
       x="0"
       maskUnits="userSpaceOnUse"><g
         id="g212"><g
           id="g210"
           clip-path="url(#clipPath194)"><g
             id="g208"><g
               id="g206"><path
                 id="path204"
                 style="fill:url(#radialGradient200);stroke:none"
                 d="M -32768,32767 H 32767 V -32768 H -32768 Z" /></g></g></g></g></mask><radialGradient
       id="radialGradient218"
       spreadMethod="pad"
       gradientTransform="matrix(323.69656,0,0,-323.69656,208.97391,338.65753)"
       gradientUnits="userSpaceOnUse"
       r="1"
       cy="0"
       cx="0"
       fy="0"
       fx="0"><stop
         id="stop214"
         offset="0"
         style="stop-opacity:1;stop-color:#ffc79c" /><stop
         id="stop216"
         offset="1"
         style="stop-opacity:1;stop-color:#ffc79c" /></radialGradient><clipPath
       id="clipPath312"
       clipPathUnits="userSpaceOnUse"><path
         id="path310"
         d="m 402.428,445.747 h 232.333 v -28.35 H 402.428 Z" /></clipPath><clipPath
       id="clipPath316"
       clipPathUnits="userSpaceOnUse"><path
         id="path314"
         d="m 444.428,429.578 c 0,0 8.667,9.446 27.333,5.22 0,0 7.667,5.159 17.334,1.088 0,0 60.333,29.487 105.333,-13.517 0,0 12.667,5.966 24.333,0 0,0 10.334,1.491 16,-4.972 H 402.428 c 0,0 7.667,14.169 42,12.181" /></clipPath><clipPath
       id="clipPath320"
       clipPathUnits="userSpaceOnUse"><path
         id="path318"
         d="M -32768,32767 H 32767 V -32768 H -32768 Z" /></clipPath><linearGradient
       id="linearGradient328"
       spreadMethod="pad"
       gradientTransform="matrix(0,28.350027,28.350027,0,518.59467,417.39734)"
       gradientUnits="userSpaceOnUse"
       y2="0"
       x2="1"
       y1="0"
       x1="0"><stop
         id="stop322"
         offset="0"
         style="stop-opacity:0;stop-color:#ffffff" /><stop
         id="stop324"
         offset="0.88063829"
         style="stop-opacity:1;stop-color:#ffffff" /><stop
         id="stop326"
         offset="1"
         style="stop-opacity:1;stop-color:#ffffff" /></linearGradient><mask
       id="mask330"
       height="1"
       width="1"
       y="0"
       x="0"
       maskUnits="userSpaceOnUse"><g
         id="g340"><g
           id="g338"
           clip-path="url(#clipPath320)"><g
             id="g336"><g
               id="g334"><path
                 id="path332"
                 style="fill:url(#linearGradient328);stroke:none"
                 d="M -32768,32767 H 32767 V -32768 H -32768 Z" /></g></g></g></g></mask><linearGradient
       id="linearGradient348"
       spreadMethod="pad"
       gradientTransform="matrix(0,28.350027,28.350027,0,518.59467,417.39734)"
       gradientUnits="userSpaceOnUse"
       y2="0"
       x2="1"
       y1="0"
       x1="0"><stop
         id="stop342"
         offset="0"
         style="stop-opacity:1;stop-color:#ffffff" /><stop
         id="stop344"
         offset="0.88063829"
         style="stop-opacity:1;stop-color:#ffffff" /><stop
         id="stop346"
         offset="1"
         style="stop-opacity:1;stop-color:#ffffff" /></linearGradient><clipPath
       id="clipPath374"
       clipPathUnits="userSpaceOnUse"><path
         id="path372"
         d="M -7.62939e-5,438.295 H 288.662 V 392.047 H -7.62939e-5 Z" /></clipPath><clipPath
       id="clipPath378"
       clipPathUnits="userSpaceOnUse"><path
         id="path376"
         d="m 0,424.362 c 0,0 20.329,18.892 52.662,12.678 32.333,-6.215 38.333,-25.355 38.333,-25.355 0,0 21,9.197 42.667,5.717 0,0 13.667,10.44 29.333,1.243 0,0 24.334,11.683 36.334,-6.96 0,0 14,5.966 25.333,0 0,0 20.667,5.717 33.667,-4.475 0,0 24,0.249 30.333,-15.163 H 0 Z" /></clipPath><clipPath
       id="clipPath382"
       clipPathUnits="userSpaceOnUse"><path
         id="path380"
         d="M -32768,32767 H 32767 V -32768 H -32768 Z" /></clipPath><linearGradient
       id="linearGradient390"
       spreadMethod="pad"
       gradientTransform="matrix(0,46.247364,46.247364,0,144.33089,392.04715)"
       gradientUnits="userSpaceOnUse"
       y2="0"
       x2="1"
       y1="0"
       x1="0"><stop
         id="stop384"
         offset="0"
         style="stop-opacity:0;stop-color:#ffffff" /><stop
         id="stop386"
         offset="0.88063829"
         style="stop-opacity:1;stop-color:#ffffff" /><stop
         id="stop388"
         offset="1"
         style="stop-opacity:1;stop-color:#ffffff" /></linearGradient><mask
       id="mask392"
       height="1"
       width="1"
       y="0"
       x="0"
       maskUnits="userSpaceOnUse"><g
         id="g402"><g
           id="g400"
           clip-path="url(#clipPath382)"><g
             id="g398"><g
               id="g396"><path
                 id="path394"
                 style="fill:url(#linearGradient390);stroke:none"
                 d="M -32768,32767 H 32767 V -32768 H -32768 Z" /></g></g></g></g></mask><linearGradient
       id="linearGradient410"
       spreadMethod="pad"
       gradientTransform="matrix(0,46.247364,46.247364,0,144.33089,392.04715)"
       gradientUnits="userSpaceOnUse"
       y2="0"
       x2="1"
       y1="0"
       x1="0"><stop
         id="stop404"
         offset="0"
         style="stop-opacity:1;stop-color:#ffffff" /><stop
         id="stop406"
         offset="0.88063829"
         style="stop-opacity:1;stop-color:#ffffff" /><stop
         id="stop408"
         offset="1"
         style="stop-opacity:1;stop-color:#ffffff" /></linearGradient><clipPath
       id="clipPath436"
       clipPathUnits="userSpaceOnUse"><path
         id="path434"
         d="M 472.572,399.454 H 750 V 375.279 H 472.572 Z" /></clipPath><clipPath
       id="clipPath440"
       clipPathUnits="userSpaceOnUse"><path
         id="path438"
         d="m 750,396.128 c 0,0 -21.384,7.484 -43.248,0 0,0 -12.632,0.802 -20.405,-3.742 0,0 -55.873,11.761 -115.633,0 0,0 -25.75,3.742 -44.698,-9.355 0,0 -11.903,2.205 -21.378,-2.406 0,0 -17.976,0.802 -32.066,-5.346 H 750 Z" /></clipPath><clipPath
       id="clipPath444"
       clipPathUnits="userSpaceOnUse"><path
         id="path442"
         d="M -32768,32767 H 32767 V -32768 H -32768 Z" /></clipPath><linearGradient
       id="linearGradient452"
       spreadMethod="pad"
       gradientTransform="matrix(0,24.175592,24.175592,0,611.28613,375.27887)"
       gradientUnits="userSpaceOnUse"
       y2="0"
       x2="1"
       y1="0"
       x1="0"><stop
         id="stop446"
         offset="0"
         style="stop-opacity:0;stop-color:#ffffff" /><stop
         id="stop448"
         offset="0.88063829"
         style="stop-opacity:1;stop-color:#ffffff" /><stop
         id="stop450"
         offset="1"
         style="stop-opacity:1;stop-color:#ffffff" /></linearGradient><mask
       id="mask454"
       height="1"
       width="1"
       y="0"
       x="0"
       maskUnits="userSpaceOnUse"><g
         id="g464"><g
           id="g462"
           clip-path="url(#clipPath444)"><g
             id="g460"><g
               id="g458"><path
                 id="path456"
                 style="fill:url(#linearGradient452);stroke:none"
                 d="M -32768,32767 H 32767 V -32768 H -32768 Z" /></g></g></g></g></mask><linearGradient
       id="linearGradient472"
       spreadMethod="pad"
       gradientTransform="matrix(0,24.175592,24.175592,0,611.28613,375.27887)"
       gradientUnits="userSpaceOnUse"
       y2="0"
       x2="1"
       y1="0"
       x1="0"><stop
         id="stop466"
         offset="0"
         style="stop-opacity:1;stop-color:#ffffff" /><stop
         id="stop468"
         offset="0.88063829"
         style="stop-opacity:1;stop-color:#ffffff" /><stop
         id="stop470"
         offset="1"
         style="stop-opacity:1;stop-color:#ffffff" /></linearGradient><clipPath
       id="clipPath498"
       clipPathUnits="userSpaceOnUse"><path
         id="path496"
         d="M 0,500 H 750 V 0 H 0 Z" /></clipPath></defs><sodipodi:namedview
     inkscape:current-layer="g18"
     inkscape:window-maximized="1"
     inkscape:window-y="-8"
     inkscape:window-x="-8"
     inkscape:cy="321.61858"
     inkscape:cx="486.67924"
     inkscape:zoom="1.075"
     showgrid="false"
     id="namedview12"
     inkscape:window-height="1017"
     inkscape:window-width="1920"
     inkscape:pageshadow="2"
     inkscape:pageopacity="0"
     guidetolerance="10"
     gridtolerance="10"
     objecttolerance="10"
     borderopacity="1"
     bordercolor="#666666"
     pagecolor="#ffffff" /><g
     transform="matrix(1.3333333,0,0,-1.3333333,0,666.66667)"
     inkscape:label="2772579"
     inkscape:groupmode="layer"
     id="g18"><g
       id="g20"><g
         clip-path="url(#clipPath26)"
         id="g22"><g
           id="g28"><g
             id="g30"><path
               id="path42"
               style="fill:url(#linearGradient40);stroke:none"
               d="M 0,0 H 750 V 500 H 0 Z" /></g></g></g></g><g
       id="g44"><g
         clip-path="url(#clipPath50)"
         id="g46"><g
           id="g52"><g
             id="g54" /><g
             id="g84"><g
               id="g82"
               opacity="0.610001"
               clip-path="url(#clipPath58)"><g
                 id="g80"><g
                   id="g78"
                   clip-path="url(#clipPath62)"><g
                     id="g76"><g
                       id="g74"><path
                         id="path72"
                         style="fill:url(#linearGradient70);stroke:none"
                         d="m 0,316.329 c 0,0 7.917,-1.995 16.228,1.773 8.311,3.767 4.987,5.762 11.636,6.427 6.649,0.665 3.657,3.546 14.627,5.541 10.971,1.994 20.944,3.103 26.264,4.432 5.319,1.33 7.646,2.882 13.962,2.882 h 17.952 c 1.995,0 10.971,-1.552 15.293,0 4.322,1.551 8.644,-0.222 15.293,0 6.649,0.221 16.622,-5.32 26.263,-5.763 9.641,-0.443 11.303,0.887 21.609,-0.222 10.306,-1.108 24.269,0 27.925,0 3.657,0 21.277,4.876 36.57,2.882 15.292,-1.995 18.617,-1.995 26.263,-1.995 7.646,0 13.63,2.66 22.495,0.296 8.866,-2.365 10.639,-2.365 14.406,-1.626 3.768,0.739 16.623,4.728 22.164,3.546 5.54,-1.182 7.092,-0.738 11.746,-1.182 4.654,-0.443 13.076,-1.921 18.174,-2.216 5.097,-0.296 29.255,-3.103 39.229,-3.103 9.973,0 11.303,1.921 16.622,1.478 5.319,-0.444 15.514,-1.921 19.725,-1.626 4.211,0.296 9.087,1.035 12.855,1.035 3.767,0 34.574,2.364 39.45,4.137 4.876,1.773 8.865,3.398 15.293,6.205 6.427,2.808 19.725,3.842 25.266,7.093 5.54,3.25 21.276,4.728 30.806,7.387 9.53,2.66 10.195,4.137 17.952,2.808 7.758,-1.33 12.412,-2.217 17.509,-2.217 5.098,0 15.958,-1.625 20.834,-2.364 4.875,-0.738 27.704,-1.329 32.579,0.296 4.876,1.625 14.628,-0.148 21.942,-1.33 7.314,-1.182 15.957,-2.66 21.055,-1.921 5.097,0.739 13.076,-2.955 17.509,-2.955 4.432,0 21.72,-4.432 27.26,-3.398 5.541,1.034 10.984,3.103 15.244,3.546 L 750,0 H 0 Z" /></g></g></g></g></g></g></g><g
           transform="translate(179.127,331.3995)"
           id="g86"><path
             id="path88"
             style="fill:#ffefd4;fill-opacity:1;fill-rule:nonzero;stroke:none"
             d="m 0,0 c 10.306,-1.108 24.269,0 27.926,0 3.656,0 21.276,4.876 36.569,2.881 0.267,-0.035 0.523,-0.068 0.783,-0.101 -0.489,21.518 -18.073,38.814 -39.709,38.814 -21.943,0 -39.732,-17.789 -39.732,-39.732 0,-0.556 0.039,-1.102 0.062,-1.651 C -9.946,0.39 -6.917,0.744 0,0" /></g><g
           id="g90"><g
             id="g92" /><g
             id="g122"><g
               id="g120"
               opacity="0.610001"
               clip-path="url(#clipPath96)"><g
                 id="g118"><g
                   id="g116"
                   clip-path="url(#clipPath100)"><g
                     id="g114"><g
                       id="g112"><path
                         id="path110"
                         style="fill:url(#linearGradient108);stroke:none"
                         d="m 750,276.002 c 0,0 -7.941,5.262 -18.001,4.116 -6.455,-0.736 -10.195,-2.004 -14.849,-1.952 -4.655,0.053 -7.979,3.051 -14.628,0 -6.649,-3.05 -16.265,-4.694 -24.601,-4.823 -1.482,-0.023 -12.882,1.93 -18.638,2.921 -2.199,0.379 -4.454,0.552 -6.725,0.52 -6.477,-0.092 -20.156,-0.244 -23.174,0.053 -9.002,0.885 -39.894,8.708 -61.17,3.494 -21.277,-5.215 -28.591,-7.432 -33.91,-6.988 -5.319,0.443 -6.649,-1.773 -18.617,-2.217 -11.968,-0.443 -15.293,2.66 -25.931,3.103 -10.638,0.444 -31.816,2.15 -39.229,2.286 -15.77,0.29 -64.494,-15.14 -69.813,-18.686 -5.32,-3.547 -23.771,-6.743 -28.591,-6.35 -6.803,0.555 -12.633,1.323 -19.282,-0.596 -6.649,-1.92 -8.643,-5.909 -20.612,-7.682 -11.968,-1.773 -29.255,-4.433 -39.228,-3.103 -9.974,1.33 -53.857,10.195 -87.766,3.546 -33.91,-6.649 -38.389,-3.814 -46.353,-5.297 -5.58,-1.039 -13.488,-5.341 -22.796,-4.455 -9.309,0.887 -21.942,2.66 -31.915,3.103 -9.973,0.444 -28.59,-2.216 -44.548,1.773 -15.957,3.99 -25.39,7.536 -39.623,7.979 L 0,0 h 750 z" /></g></g></g></g></g></g></g></g></g><g
       id="g124"><g
         clip-path="url(#clipPath130)"
         id="g126"><g
           id="g132"><g
             id="g134"><path
               id="path146"
               style="fill:url(#linearGradient144);stroke:none"
               d="m 54.694,190.32 c -4.654,-0.443 -2.218,-4.796 -15.514,-2.069 v 0 c -11.525,2.364 -9.973,-1.625 -22.385,-6.058 v 0 C 4.384,177.761 0,175.396 0,175.396 v 0 V 0 h 750 v 102.812 l -269.552,38.897 c 0,0 -13.741,5.615 -17.731,7.979 v 0 c -3.99,2.363 -19.06,2.363 -24.823,5.909 v 0 c -5.762,3.547 -12.855,3.842 -21.72,4.434 v 0 c -8.865,0.59 -14.627,-0.592 -20.833,2.363 v 0 c -6.205,2.956 -12.411,4.433 -16.401,4.433 v 0 c -3.989,0 -20.833,1.182 -27.482,3.547 v 0 c -6.649,2.363 -19.06,1.773 -28.812,-0.592 v 0 c -9.752,-2.364 -11.968,-0.591 -21.719,0.295 v 0 c -9.753,0.887 -9.309,-4.137 -14.628,-4.432 v 0 c -5.32,-0.295 -7.979,-0.887 -20.39,-0.591 v 0 c -12.411,0.296 -31.915,-8.865 -35.905,-10.047 v 0 c -3.989,-1.183 -18.174,-2.364 -20.389,-2.364 v 0 c -2.217,0 -11.969,0 -20.391,2.954 v 0 c -8.422,2.956 -13.741,3.251 -13.741,3.251 v 0 c 0,0 -12.114,2.002 -13.298,3.251 v 0 c -2.192,2.313 -11.968,2.659 -15.071,2.659 v 0 c -3.102,0 -12.411,0.296 -14.184,5.911 v 0 c -1.773,5.614 -19.06,9.456 -19.06,9.456 v 0 c 0,0 -18.618,8.274 -25.71,11.546 v 0 c -1.975,0.912 -5.057,1.247 -8.585,1.247 v 0 c -9.14,0 -21.271,-2.254 -24.881,-2.598" /></g></g></g></g><g
       id="g148"><g
         clip-path="url(#clipPath154)"
         id="g150"><g
           id="g156"><g
             id="g158"><path
               id="path166"
               style="fill:url(#linearGradient164);stroke:none"
               d="m 739.242,197.491 c -0.08,0.069 -0.373,0.069 -0.373,0.069 v 0 z m -2.588,-0.965 c -3.99,-1.034 -9.309,-1.034 -9.309,-1.034 v 0 c 0,0 -4.655,-2.66 -6.871,-3.99 v 0 c -2.216,-1.329 -6.427,-1.329 -9.087,-0.739 v 0 c -2.66,0.591 -11.968,-0.018 -13.298,-0.378 v 0 c -1.33,-0.361 -6.427,0.23 -7.978,-0.951 v 0 c -1.552,-1.183 -7.979,-0.739 -9.087,-0.739 v 0 c -1.108,0 -9.309,-0.296 -11.303,-1.625 v 0 c -1.995,-1.331 -5.098,-1.331 -7.092,-1.478 v 0 c -0.559,-0.042 -1.692,-0.002 -3.056,0.038 v 0 c -3.509,0.101 -8.558,0.204 -9.356,-1.072 v 0 c -1.108,-1.773 -9.53,-2.512 -9.53,-2.512 v 0 c 0,0 -9.087,0.295 -11.525,0 v 0 c -1.016,-0.124 -1.686,0.01 -2.586,0.143 v 0 c -1.26,0.187 -2.973,0.373 -6.723,-0.143 v 0 c -6.426,-0.887 -11.081,-1.871 -17.287,-0.049 v 0 c -6.205,1.822 -2.216,1.822 -10.195,1.379 v 0 c -7.979,-0.444 -16.844,-1.035 -20.612,-0.296 v 0 c -3.767,0.739 -11.524,2.955 -12.411,2.955 v 0 c -0.886,0 -4.211,1.773 -7.092,1.182 v 0 c -2.881,-0.591 -10.639,-1.034 -14.406,-2.659 v 0 c -3.768,-1.626 -7.757,-1.921 -9.309,-2.512 v 0 c -1.551,-0.592 -7.535,-1.182 -8.643,-2.807 v 0 c -1.108,-1.626 -7.757,-1.035 -12.19,-3.694 v 0 c -4.433,-2.66 -7.313,-1.922 -9.973,-3.99 v 0 c -2.659,-2.068 -9.087,-3.693 -11.303,-4.285 v 0 c -2.217,-0.591 -19.948,-6.058 -22.385,-7.092 v 0 c -2.438,-1.034 -10.195,-5.171 -13.963,-5.467 v 0 c -3.768,-0.295 -1.995,-1.034 -7.092,-2.66 v 0 c -5.098,-1.625 -9.309,-3.841 -13.52,-3.841 v 0 c -4.21,0 -14.627,-4.137 -17.951,-4.728 v 0 c -3.325,-0.591 -1.996,-1.773 -5.985,-1.921 v 0 c -3.989,-0.148 -5.319,-1.182 -7.757,-1.329 v 0 c -2.438,-0.149 -24.823,-4.877 -26.374,-3.842 v 0 c -1.552,1.034 -4.654,-0.148 -11.082,-1.773 v 0 c -6.427,-1.626 -16.178,-4.138 -18.395,-3.399 v 0 c -2.217,0.739 -9.974,-1.478 -14.184,-1.478 v 0 c -4.211,0 -7.314,-0.147 -11.303,0 v 0 c -3.99,0.149 -13.741,1.478 -13.741,1.478 v 0 c 0,0 -9.309,-1.018 -12.855,-1.543 v 0 c -3.546,-0.525 -9.309,0.361 -11.303,-1.559 v 0 c -1.995,-1.922 -8.201,-3.399 -10.195,-3.399 v 0 c -1.996,0 -16.623,-1.33 -20.169,-1.772 v 0 c -3.546,-0.444 -15.292,-0.149 -16.622,0 v 0 c -0.49,0.054 -2.962,-0.216 -6.012,-0.486 v 0 c -5.235,-0.462 -12.174,-0.925 -13.714,0.251 v 0 c -2.438,1.859 -16.4,1.121 -19.725,1.711 v 0 c -3.324,0.592 -24.379,1.626 -31.028,2.217 v 0 c -6.649,0.591 -9.973,0.591 -13.519,1.773 v 0 c -3.546,1.182 -9.309,3.103 -12.412,2.66 v 0 c -3.102,-0.444 -23.936,2.954 -28.147,4.137 v 0 c -4.211,1.182 -12.854,0.59 -15.293,0.886 v 0 c -2.438,0.296 -7.535,1.034 -10.86,1.478 v 0 c -3.324,0.443 -9.751,1.182 -12.854,0.738 v 0 c -1.435,-0.205 -3.866,0.76 -6.502,1.724 v 0 c -3.065,1.12 -6.408,2.242 -8.79,1.527 v 0 c -4.433,-1.329 -15.515,-0.443 -15.515,-0.443 v 0 c 0,0 -7.535,2.364 -11.303,1.773 v 0 c -3.768,-0.591 -7.979,-0.147 -9.974,0.443 v 0 C 13.914,143.925 2.487,145.255 0,144.959 v 0 V 0 h 750 v 195.492 l -10.758,1.999 c 0.117,-0.102 -0.219,-0.351 -2.588,-0.965" /></g></g></g></g><g
       id="g168"><g
         clip-path="url(#clipPath174)"
         id="g170"><g
           transform="translate(750,21.6619)"
           id="g176"><path
             id="path178"
             style="fill:#232349;fill-opacity:1;fill-rule:nonzero;stroke:none"
             d="m 0,0 c 0,0 -3.595,8.57 -12.46,7.979 -8.866,-0.591 -8.866,1.773 -15.071,2.364 -6.206,0.591 -15.958,-2.069 -21.72,0 -5.762,2.068 -21.277,4.432 -23.936,6.205 -2.66,1.774 -19.947,2.365 -23.05,2.365 -3.103,0 -12.411,2.29 -18.063,2.29 -5.651,0 -7.646,1.551 -11.303,2.216 -3.657,0.665 -8.976,-0.665 -12.301,0 -3.324,0.665 -14.627,2.438 -16.622,2.881 -1.995,0.443 -20.612,4.654 -23.604,3.768 -2.992,-0.887 -25.93,1.773 -29.92,2.66 -3.989,0.886 -4.986,4.875 -8.643,4.875 -3.657,0 -6.649,1.773 -12.633,1.773 -5.984,0 -20.945,3.103 -27.261,3.103 -6.317,0 -12.965,1.33 -17.287,2.882 -4.322,1.551 -15.293,5.54 -17.287,5.54 -1.995,0 -10.306,1.773 -19.947,1.995 -9.641,0.222 -6.982,1.551 -15.958,2.66 -8.976,1.108 -19.614,4.211 -24.268,3.989 -4.655,-0.222 -7.314,-1.995 -15.958,1.551 -8.643,3.546 -43.55,6.649 -50.199,5.319 -6.649,-1.329 -10.639,2.66 -18.95,1.774 -8.311,-0.887 -12.633,1.368 -21.276,0.129 -8.644,-1.238 -20.28,-0.351 -23.272,-0.573 -2.992,-0.221 -18.395,-0.96 -24.601,-0.221 -6.205,0.738 -9.308,1.021 -21.498,1.175 -12.19,0.154 -16.844,1.189 -24.379,0.745 -7.536,-0.443 -33.245,-5.466 -38.564,-4.284 -5.319,1.182 -21.277,-1.035 -27.039,-1.773 -5.763,-0.739 -19.504,-4.729 -27.926,-2.512 -8.422,2.216 -7.757,3.989 -18.838,2.364 -11.082,-1.626 -12.19,-0.443 -21.277,-1.773 -9.087,-1.33 -5.319,-2.955 -24.379,-5.615 -19.061,-2.66 -15.515,-4.433 -20.834,-4.433 -5.319,0 -19.676,-3.841 -19.676,-3.841 V -21.662 H 0 Z" /></g><g
           id="g180"><g
             id="g182" /><g
             id="g236"><g
               id="g234"
               opacity="0.770004"
               clip-path="url(#clipPath186)"><g
                 id="g232"><g
                   id="g230"
                   clip-path="url(#clipPath190)"><g
                     id="g228"><g
                       id="g220" /><g
                       id="g226"
                       mask="url(#mask202)"><g
                         id="g224"><path
                           id="path222"
                           style="fill:url(#radialGradient218);stroke:none"
                           d="M 489.654,500 H 0 V 91.476 C 56.391,43.753 129.314,14.961 208.974,14.961 c 178.773,0 323.696,144.924 323.696,323.697 0,58.751 -15.654,113.845 -43.016,161.342" /></g></g></g></g></g></g></g></g><g
           transform="translate(154.0318,462.3015)"
           id="g238"><path
             id="path240"
             style="fill:#fff1e3;fill-opacity:1;fill-rule:nonzero;stroke:none"
             d="M 0,0 C -1.286,0.135 -2.302,1.152 -2.438,2.438 L -2.827,6.139 -3.217,2.438 C -3.352,1.152 -4.369,0.135 -5.655,0 l -3.701,-0.39 3.701,-0.389 c 1.286,-0.136 2.303,-1.152 2.438,-2.438 l 0.39,-3.701 0.389,3.701 c 0.136,1.286 1.152,2.302 2.438,2.438 l 3.701,0.389 z" /></g><g
           transform="translate(721.4414,479.3196)"
           id="g242"><path
             id="path244"
             style="fill:#fff1e3;fill-opacity:1;fill-rule:nonzero;stroke:none"
             d="M 0,0 C -1.286,0.135 -2.302,1.152 -2.438,2.438 L -2.827,6.139 -3.217,2.438 C -3.352,1.152 -4.368,0.135 -5.655,0 l -3.701,-0.39 3.701,-0.389 c 1.287,-0.136 2.303,-1.152 2.438,-2.438 l 0.39,-3.701 0.389,3.701 c 0.136,1.286 1.152,2.302 2.438,2.438 l 3.701,0.389 z" /></g><g
           transform="translate(376.4592,465.863)"
           id="g246"><path
             id="path248"
             style="fill:#fff1e3;fill-opacity:1;fill-rule:nonzero;stroke:none"
             d="M 0,0 C -0.664,0.07 -1.188,0.594 -1.258,1.258 L -1.459,3.169 -1.66,1.258 C -1.73,0.594 -2.255,0.07 -2.918,0 l -1.911,-0.201 1.911,-0.201 c 0.663,-0.07 1.188,-0.595 1.258,-1.258 l 0.201,-1.911 0.201,1.911 c 0.07,0.663 0.594,1.188 1.258,1.258 l 1.91,0.201 z" /></g><g
           transform="translate(567.4498,460.5622)"
           id="g250"><path
             id="path252"
             style="fill:#fff1e3;fill-opacity:1;fill-rule:nonzero;stroke:none"
             d="m 0,0 c -0.891,0.094 -1.595,0.798 -1.689,1.689 l -0.27,2.565 -0.27,-2.565 C -2.323,0.798 -3.027,0.094 -3.918,0 l -2.564,-0.27 2.564,-0.27 c 0.891,-0.094 1.595,-0.798 1.689,-1.689 l 0.27,-2.564 0.27,2.564 c 0.094,0.891 0.798,1.595 1.689,1.689 l 2.565,0.27 z" /></g><g
           transform="translate(229.9889,428.4037)"
           id="g254"><path
             id="path256"
             style="fill:#fff1e3;fill-opacity:1;fill-rule:nonzero;stroke:none"
             d="M 0,0 C -0.664,0.07 -1.188,0.594 -1.258,1.258 L -1.459,3.169 -1.66,1.258 C -1.73,0.594 -2.255,0.07 -2.918,0 l -1.911,-0.201 1.911,-0.201 c 0.663,-0.07 1.188,-0.595 1.258,-1.258 l 0.201,-1.911 0.201,1.911 c 0.07,0.663 0.594,1.188 1.258,1.258 l 1.91,0.201 z" /></g><g
           transform="translate(454.9352,380.4921)"
           id="g258"><path
             id="path260"
             style="fill:#fff1e3;fill-opacity:1;fill-rule:nonzero;stroke:none"
             d="M 0,0 C -1.153,0.121 -2.064,1.032 -2.185,2.185 L -2.534,5.503 -2.883,2.185 C -3.005,1.032 -3.916,0.121 -5.068,0 l -3.318,-0.349 3.318,-0.349 c 1.152,-0.122 2.063,-1.033 2.185,-2.185 l 0.349,-3.318 0.349,3.318 c 0.121,1.152 1.032,2.063 2.185,2.185 l 3.318,0.349 z" /></g><g
           transform="translate(356.1162,414.2694)"
           id="g262"><path
             id="path264"
             style="fill:#fff1e3;fill-opacity:1;fill-rule:nonzero;stroke:none"
             d="m 0,0 c -0.948,0.1 -1.698,0.849 -1.797,1.797 l -0.288,2.73 -0.287,-2.73 C -2.472,0.849 -3.221,0.1 -4.169,0 l -2.729,-0.287 2.729,-0.288 c 0.948,-0.099 1.697,-0.849 1.797,-1.797 l 0.287,-2.729 0.288,2.729 c 0.099,0.948 0.849,1.698 1.797,1.797 l 2.729,0.288 z" /></g><g
           transform="translate(45.0038,363.2113)"
           id="g266"><path
             id="path268"
             style="fill:#fff1e3;fill-opacity:1;fill-rule:nonzero;stroke:none"
             d="m 0,0 c -0.948,0.1 -1.698,0.849 -1.797,1.797 l -0.288,2.73 -0.287,-2.73 C -2.472,0.849 -3.221,0.1 -4.169,0 l -2.729,-0.287 2.729,-0.288 c 0.948,-0.099 1.697,-0.849 1.797,-1.797 l 0.287,-2.729 0.288,2.729 c 0.099,0.948 0.849,1.698 1.797,1.797 l 2.729,0.288 z" /></g><g
           transform="translate(577.5867,399.6556)"
           id="g270"><path
             id="path272"
             style="fill:#fff1e3;fill-opacity:1;fill-rule:nonzero;stroke:none"
             d="M 0,0 C -0.664,0.07 -1.188,0.594 -1.258,1.258 L -1.459,3.169 -1.66,1.258 C -1.73,0.594 -2.255,0.07 -2.919,0 l -1.91,-0.201 1.91,-0.201 c 0.664,-0.07 1.189,-0.595 1.259,-1.258 l 0.201,-1.911 0.201,1.911 c 0.07,0.663 0.594,1.188 1.258,1.258 l 1.91,0.201 z" /></g><g
           transform="translate(183.9952,376.5641)"
           id="g274"><path
             id="path276"
             style="fill:#eccaaf;fill-opacity:1;fill-rule:nonzero;stroke:none"
             d="M 0,0 C -0.664,0.07 -1.188,0.594 -1.258,1.258 L -1.459,3.169 -1.66,1.258 C -1.73,0.594 -2.255,0.07 -2.918,0 l -1.911,-0.201 1.911,-0.201 c 0.663,-0.07 1.188,-0.595 1.258,-1.258 l 0.201,-1.911 0.201,1.911 c 0.07,0.663 0.594,1.188 1.258,1.258 l 1.91,0.201 z" /></g><g
           transform="translate(93.6705,415.6273)"
           id="g278"><path
             id="path280"
             style="fill:#eccaaf;fill-opacity:1;fill-rule:nonzero;stroke:none"
             d="M 0,0 C -0.664,0.07 -1.188,0.594 -1.258,1.258 L -1.459,3.169 -1.66,1.258 C -1.73,0.594 -2.255,0.07 -2.918,0 l -1.911,-0.201 1.911,-0.201 c 0.663,-0.07 1.188,-0.595 1.258,-1.258 l 0.201,-1.911 0.201,1.911 c 0.07,0.663 0.594,1.188 1.258,1.258 l 1.91,0.201 z" /></g><g
           transform="translate(309.4545,418.997)"
           id="g282"><path
             id="path284"
             style="fill:#eccaaf;fill-opacity:1;fill-rule:nonzero;stroke:none"
             d="M 0,0 C -0.664,0.07 -1.188,0.594 -1.258,1.258 L -1.459,3.169 -1.66,1.258 C -1.73,0.594 -2.255,0.07 -2.918,0 l -1.911,-0.201 1.911,-0.201 c 0.663,-0.07 1.188,-0.595 1.258,-1.258 l 0.201,-1.911 0.201,1.911 c 0.07,0.663 0.594,1.188 1.258,1.258 l 1.91,0.201 z" /></g><g
           transform="translate(716.9143,376.5641)"
           id="g286"><path
             id="path288"
             style="fill:#eccaaf;fill-opacity:1;fill-rule:nonzero;stroke:none"
             d="M 0,0 C -0.664,0.07 -1.188,0.594 -1.258,1.258 L -1.459,3.169 -1.66,1.258 C -1.73,0.594 -2.255,0.07 -2.918,0 l -1.911,-0.201 1.911,-0.201 c 0.663,-0.07 1.188,-0.595 1.258,-1.258 l 0.201,-1.911 0.201,1.911 c 0.07,0.663 0.594,1.188 1.258,1.258 l 1.91,0.201 z" /></g><g
           transform="translate(470.6619,433.2327)"
           id="g290"><path
             id="path292"
             style="fill:#eccaaf;fill-opacity:1;fill-rule:nonzero;stroke:none"
             d="M 0,0 C -0.664,0.07 -1.188,0.594 -1.258,1.258 L -1.459,3.169 -1.66,1.258 C -1.73,0.594 -2.255,0.07 -2.918,0 l -1.911,-0.201 1.911,-0.201 c 0.663,-0.07 1.188,-0.595 1.258,-1.258 l 0.201,-1.911 0.201,1.911 c 0.07,0.663 0.594,1.188 1.258,1.258 l 1.91,0.201 z" /></g><g
           transform="translate(676.3372,415.6273)"
           id="g294"><path
             id="path296"
             style="fill:#eccaaf;fill-opacity:1;fill-rule:nonzero;stroke:none"
             d="M 0,0 C -0.664,0.07 -1.188,0.594 -1.258,1.258 L -1.459,3.169 -1.66,1.258 C -1.73,0.594 -2.255,0.07 -2.919,0 l -1.91,-0.201 1.91,-0.201 c 0.664,-0.07 1.189,-0.595 1.259,-1.258 l 0.201,-1.911 0.201,1.911 c 0.07,0.663 0.594,1.188 1.258,1.258 l 1.91,0.201 z" /></g><g
           transform="translate(598.0848,433.2327)"
           id="g298"><path
             id="path300"
             style="fill:#eccaaf;fill-opacity:1;fill-rule:nonzero;stroke:none"
             d="M 0,0 C -0.664,0.07 -1.188,0.594 -1.258,1.258 L -1.459,3.169 -1.66,1.258 C -1.73,0.594 -2.255,0.07 -2.918,0 l -1.911,-0.201 1.911,-0.201 c 0.663,-0.07 1.188,-0.595 1.258,-1.258 l 0.201,-1.911 0.201,1.911 c 0.07,0.663 0.594,1.188 1.258,1.258 l 1.91,0.201 z" /></g><g
           transform="translate(391.3286,354.9416)"
           id="g302"><path
             id="path304"
             style="fill:#eccaaf;fill-opacity:1;fill-rule:nonzero;stroke:none"
             d="M 0,0 C -0.664,0.07 -1.188,0.594 -1.258,1.258 L -1.459,3.169 -1.66,1.258 C -1.73,0.594 -2.255,0.07 -2.918,0 l -1.911,-0.201 1.911,-0.201 c 0.663,-0.07 1.188,-0.595 1.258,-1.258 l 0.201,-1.911 0.201,1.911 c 0.07,0.663 0.594,1.188 1.258,1.258 l 1.91,0.201 z" /></g><g
           id="g306"><g
             id="g308" /><g
             id="g366"><g
               id="g364"
               opacity="0.240005"
               clip-path="url(#clipPath312)"><g
                 id="g362"><g
                   id="g360"
                   clip-path="url(#clipPath316)"><g
                     id="g358"><g
                       id="g350" /><g
                       id="g356"
                       mask="url(#mask330)"><g
                         id="g354"><path
                           id="path352"
                           style="fill:url(#linearGradient348);stroke:none"
                           d="m 444.428,429.578 c 0,0 8.667,9.446 27.333,5.22 0,0 7.667,5.159 17.334,1.088 0,0 60.333,29.487 105.333,-13.517 0,0 12.667,5.966 24.333,0 0,0 10.334,1.491 16,-4.972 H 402.428 c 0,0 7.667,14.169 42,12.181" /></g></g></g></g></g></g></g></g><g
           id="g368"><g
             id="g370" /><g
             id="g428"><g
               id="g426"
               opacity="0.240005"
               clip-path="url(#clipPath374)"><g
                 id="g424"><g
                   id="g422"
                   clip-path="url(#clipPath378)"><g
                     id="g420"><g
                       id="g412" /><g
                       id="g418"
                       mask="url(#mask392)"><g
                         id="g416"><path
                           id="path414"
                           style="fill:url(#linearGradient410);stroke:none"
                           d="m 0,424.362 c 0,0 20.329,18.892 52.662,12.678 32.333,-6.215 38.333,-25.355 38.333,-25.355 0,0 21,9.197 42.667,5.717 0,0 13.667,10.44 29.333,1.243 0,0 24.334,11.683 36.334,-6.96 0,0 14,5.966 25.333,0 0,0 20.667,5.717 33.667,-4.475 0,0 24,0.249 30.333,-15.163 H 0 Z" /></g></g></g></g></g></g></g></g><g
           id="g430"><g
             id="g432" /><g
             id="g490"><g
               id="g488"
               opacity="0.240005"
               clip-path="url(#clipPath436)"><g
                 id="g486"><g
                   id="g484"
                   clip-path="url(#clipPath440)"><g
                     id="g482"><g
                       id="g474" /><g
                       id="g480"
                       mask="url(#mask454)"><g
                         id="g478"><path
                           id="path476"
                           style="fill:url(#linearGradient472);stroke:none"
                           d="m 750,396.128 c 0,0 -21.384,7.484 -43.248,0 0,0 -12.632,0.802 -20.405,-3.742 0,0 -55.873,11.761 -115.633,0 0,0 -25.75,3.742 -44.698,-9.355 0,0 -11.903,2.205 -21.378,-2.406 0,0 -17.976,0.802 -32.066,-5.346 H 750 Z" /></g></g></g></g></g></g></g></g></g></g></g></svg>
